<mxfile host="app.diagrams.net" modified="2023-09-22T05:49:17.444Z" agent="Mozilla/5.0 (Macintosh; Intel Mac OS X 10_15_7) AppleWebKit/605.1.15 (KHTML, like Gecko) Version/16.6 Safari/605.1.15" etag="QrfQsTDiyzlEgIM-i7mp" version="21.8.0" type="device">
  <diagram name="第 1 页" id="pYm_2EkLI6lQ4lj8E7AL">
    <mxGraphModel dx="1363" dy="964" grid="1" gridSize="10" guides="1" tooltips="1" connect="1" arrows="1" fold="1" page="1" pageScale="1" pageWidth="827" pageHeight="1169" math="0" shadow="0">
      <root>
        <mxCell id="0" />
        <mxCell id="1" parent="0" />
        <mxCell id="cUyVVVKYGetLILxytOfe-30" value="&lt;table border=&quot;0&quot; cellpadding=&quot;0&quot; cellspacing=&quot;0&quot; width=&quot;830&quot; style=&quot;caret-color: rgb(0, 0, 0); color: rgb(0, 0, 0); font-style: normal; font-variant-caps: normal; font-weight: 400; letter-spacing: normal; text-align: start; text-transform: none; word-spacing: 0px; -webkit-text-stroke-width: 0px; text-decoration: none; border-collapse: collapse; width: 622pt;&quot;&gt;&lt;colgroup&gt;&lt;col width=&quot;138&quot; span=&quot;6&quot; style=&quot;width: 104pt;&quot;&gt;&lt;/colgroup&gt;&lt;tbody&gt;&lt;tr height=&quot;35&quot; style=&quot;height: 26.03pt;&quot;&gt;&lt;td height=&quot;35&quot; class=&quot;oa1&quot; width=&quot;138&quot; style=&quot;padding: 3.6pt 7.2pt; color: windowtext; font-size: 18pt; font-weight: 400; font-style: normal; text-decoration: none; font-family: Arial; vertical-align: top; border: 1pt solid black; text-align: center; height: 26.03pt; width: 104pt;&quot;&gt;&lt;p style=&quot;margin-top: 0pt; margin-bottom: 0pt; margin-left: 0in; text-align: center; direction: ltr; unicode-bidi: embed; word-break: normal;&quot;&gt;&lt;span style=&quot;font-size: 18pt; font-family: 等线; color: black;&quot;&gt;id&lt;/span&gt;&lt;/p&gt;&lt;/td&gt;&lt;td class=&quot;oa1&quot; width=&quot;138&quot; style=&quot;padding: 3.6pt 7.2pt; color: windowtext; font-size: 18pt; font-weight: 400; font-style: normal; text-decoration: none; font-family: Arial; vertical-align: top; border: 1pt solid black; text-align: center; width: 104pt;&quot;&gt;&lt;p style=&quot;margin-top: 0pt; margin-bottom: 0pt; margin-left: 0in; text-align: center; direction: ltr; unicode-bidi: embed; word-break: normal;&quot;&gt;&lt;span style=&quot;font-size: 18pt; font-family: 等线; color: black;&quot;&gt;Student_id&lt;/span&gt;&lt;/p&gt;&lt;/td&gt;&lt;td class=&quot;oa1&quot; width=&quot;138&quot; style=&quot;padding: 3.6pt 7.2pt; color: windowtext; font-size: 18pt; font-weight: 400; font-style: normal; text-decoration: none; font-family: Arial; vertical-align: top; border: 1pt solid black; text-align: center; width: 104pt;&quot;&gt;&lt;p style=&quot;margin-top: 0pt; margin-bottom: 0pt; margin-left: 0in; text-align: center; direction: ltr; unicode-bidi: embed; word-break: normal;&quot;&gt;&lt;span style=&quot;font-size: 18pt; font-family: 等线; color: black;&quot;&gt;Name&lt;/span&gt;&lt;/p&gt;&lt;/td&gt;&lt;td class=&quot;oa1&quot; width=&quot;138&quot; style=&quot;padding: 3.6pt 7.2pt; color: windowtext; font-size: 18pt; font-weight: 400; font-style: normal; text-decoration: none; font-family: Arial; vertical-align: top; border: 1pt solid black; text-align: center; width: 104pt;&quot;&gt;&lt;p style=&quot;margin-top: 0pt; margin-bottom: 0pt; margin-left: 0in; text-align: center; direction: ltr; unicode-bidi: embed; word-break: normal;&quot;&gt;&lt;span style=&quot;font-size: 18pt; font-family: 等线; color: black;&quot;&gt;Math&lt;/span&gt;&lt;/p&gt;&lt;/td&gt;&lt;td class=&quot;oa1&quot; width=&quot;138&quot; style=&quot;padding: 3.6pt 7.2pt; color: windowtext; font-size: 18pt; font-weight: 400; font-style: normal; text-decoration: none; font-family: Arial; vertical-align: top; border: 1pt solid black; text-align: center; width: 104pt;&quot;&gt;&lt;p style=&quot;margin-top: 0pt; margin-bottom: 0pt; margin-left: 0in; text-align: center; direction: ltr; unicode-bidi: embed; word-break: normal;&quot;&gt;&lt;span style=&quot;font-size: 18pt; font-family: 等线; color: black;&quot;&gt;English&lt;/span&gt;&lt;/p&gt;&lt;/td&gt;&lt;td class=&quot;oa1&quot; width=&quot;138&quot; style=&quot;padding: 3.6pt 7.2pt; color: windowtext; font-size: 18pt; font-weight: 400; font-style: normal; text-decoration: none; font-family: Arial; vertical-align: top; border: 1pt solid black; text-align: center; width: 104pt;&quot;&gt;&lt;p style=&quot;margin-top: 0pt; margin-bottom: 0pt; margin-left: 0in; text-align: center; direction: ltr; unicode-bidi: embed; word-break: normal;&quot;&gt;&lt;span style=&quot;font-size: 18pt; font-family: 等线; color: black;&quot;&gt;History&lt;/span&gt;&lt;/p&gt;&lt;/td&gt;&lt;/tr&gt;&lt;tr height=&quot;35&quot; style=&quot;height: 26.03pt;&quot;&gt;&lt;td height=&quot;35&quot; class=&quot;oa1&quot; width=&quot;138&quot; style=&quot;padding: 3.6pt 7.2pt; color: windowtext; font-size: 18pt; font-weight: 400; font-style: normal; text-decoration: none; font-family: Arial; vertical-align: top; border: 1pt solid black; text-align: center; height: 26.03pt; width: 104pt;&quot;&gt;&lt;p style=&quot;margin-top: 0pt; margin-bottom: 0pt; margin-left: 0in; text-align: center; direction: ltr; unicode-bidi: embed; word-break: normal;&quot;&gt;&lt;span style=&quot;font-size: 18pt; font-family: 等线; color: black;&quot;&gt;0&lt;/span&gt;&lt;/p&gt;&lt;/td&gt;&lt;td class=&quot;oa1&quot; width=&quot;138&quot; style=&quot;padding: 3.6pt 7.2pt; color: windowtext; font-size: 18pt; font-weight: 400; font-style: normal; text-decoration: none; font-family: Arial; vertical-align: top; border: 1pt solid black; text-align: center; width: 104pt;&quot;&gt;&lt;p style=&quot;margin-top: 0pt; margin-bottom: 0pt; margin-left: 0in; text-align: center; direction: ltr; unicode-bidi: embed; word-break: normal;&quot;&gt;&lt;span style=&quot;font-size: 18pt; font-family: 等线; color: black;&quot;&gt;1&lt;/span&gt;&lt;/p&gt;&lt;/td&gt;&lt;td class=&quot;oa1&quot; width=&quot;138&quot; style=&quot;padding: 3.6pt 7.2pt; color: windowtext; font-size: 18pt; font-weight: 400; font-style: normal; text-decoration: none; font-family: Arial; vertical-align: top; border: 1pt solid black; text-align: center; width: 104pt;&quot;&gt;&lt;p style=&quot;margin-top: 0pt; margin-bottom: 0pt; margin-left: 0in; text-align: center; direction: ltr; unicode-bidi: embed; word-break: normal;&quot;&gt;&lt;span style=&quot;font-size: 18pt; font-family: 等线; color: black;&quot;&gt;Amy&lt;/span&gt;&lt;/p&gt;&lt;/td&gt;&lt;td class=&quot;oa1&quot; width=&quot;138&quot; style=&quot;padding: 3.6pt 7.2pt; color: windowtext; font-size: 18pt; font-weight: 400; font-style: normal; text-decoration: none; font-family: Arial; vertical-align: top; border: 1pt solid black; text-align: center; width: 104pt;&quot;&gt;&lt;p style=&quot;margin-top: 0pt; margin-bottom: 0pt; margin-left: 0in; text-align: center; direction: ltr; unicode-bidi: embed; word-break: normal;&quot;&gt;&lt;span style=&quot;font-size: 18pt; font-family: 等线; color: black;&quot;&gt;90&lt;/span&gt;&lt;/p&gt;&lt;/td&gt;&lt;td class=&quot;oa1&quot; width=&quot;138&quot; style=&quot;padding: 3.6pt 7.2pt; color: windowtext; font-size: 18pt; font-weight: 400; font-style: normal; text-decoration: none; font-family: Arial; vertical-align: top; border: 1pt solid black; text-align: center; width: 104pt;&quot;&gt;&lt;p style=&quot;margin-top: 0pt; margin-bottom: 0pt; margin-left: 0in; text-align: center; direction: ltr; unicode-bidi: embed; word-break: normal;&quot;&gt;&lt;span style=&quot;font-size: 18pt; font-family: 等线; color: black;&quot;&gt;85&lt;/span&gt;&lt;/p&gt;&lt;/td&gt;&lt;td class=&quot;oa1&quot; width=&quot;138&quot; style=&quot;padding: 3.6pt 7.2pt; color: windowtext; font-size: 18pt; font-weight: 400; font-style: normal; text-decoration: none; font-family: Arial; vertical-align: top; border: 1pt solid black; text-align: center; width: 104pt;&quot;&gt;&lt;p style=&quot;margin-top: 0pt; margin-bottom: 0pt; margin-left: 0in; text-align: center; direction: ltr; unicode-bidi: embed; word-break: normal;&quot;&gt;&lt;span style=&quot;font-size: 18pt; font-family: 等线; color: black;&quot;&gt;88&lt;/span&gt;&lt;/p&gt;&lt;/td&gt;&lt;/tr&gt;&lt;tr height=&quot;35&quot; style=&quot;height: 26.03pt;&quot;&gt;&lt;td height=&quot;35&quot; class=&quot;oa1&quot; width=&quot;138&quot; style=&quot;padding: 3.6pt 7.2pt; color: windowtext; font-size: 18pt; font-weight: 400; font-style: normal; text-decoration: none; font-family: Arial; vertical-align: top; border: 1pt solid black; text-align: center; height: 26.03pt; width: 104pt;&quot;&gt;&lt;p style=&quot;margin-top: 0pt; margin-bottom: 0pt; margin-left: 0in; text-align: center; direction: ltr; unicode-bidi: embed; word-break: normal;&quot;&gt;&lt;span style=&quot;font-size: 18pt; font-family: 等线; color: black;&quot;&gt;1&lt;/span&gt;&lt;/p&gt;&lt;/td&gt;&lt;td class=&quot;oa1&quot; width=&quot;138&quot; style=&quot;padding: 3.6pt 7.2pt; color: windowtext; font-size: 18pt; font-weight: 400; font-style: normal; text-decoration: none; font-family: Arial; vertical-align: top; border: 1pt solid black; text-align: center; width: 104pt;&quot;&gt;&lt;p style=&quot;margin-top: 0pt; margin-bottom: 0pt; margin-left: 0in; text-align: center; direction: ltr; unicode-bidi: embed; word-break: normal;&quot;&gt;&lt;span style=&quot;font-size: 18pt; font-family: 等线; color: black;&quot;&gt;2&lt;/span&gt;&lt;/p&gt;&lt;/td&gt;&lt;td class=&quot;oa1&quot; width=&quot;138&quot; style=&quot;padding: 3.6pt 7.2pt; color: windowtext; font-size: 18pt; font-weight: 400; font-style: normal; text-decoration: none; font-family: Arial; vertical-align: top; border: 1pt solid black; text-align: center; width: 104pt;&quot;&gt;&lt;p style=&quot;margin-top: 0pt; margin-bottom: 0pt; margin-left: 0in; text-align: center; direction: ltr; unicode-bidi: embed; word-break: normal;&quot;&gt;&lt;span style=&quot;font-size: 18pt; font-family: 等线; color: black;&quot;&gt;Bob&lt;/span&gt;&lt;/p&gt;&lt;/td&gt;&lt;td class=&quot;oa1&quot; width=&quot;138&quot; style=&quot;padding: 3.6pt 7.2pt; color: windowtext; font-size: 18pt; font-weight: 400; font-style: normal; text-decoration: none; font-family: Arial; vertical-align: top; border: 1pt solid black; text-align: center; width: 104pt;&quot;&gt;&lt;p style=&quot;margin-top: 0pt; margin-bottom: 0pt; margin-left: 0in; text-align: center; direction: ltr; unicode-bidi: embed; word-break: normal;&quot;&gt;&lt;span style=&quot;font-size: 18pt; font-family: 等线; color: black;&quot;&gt;78&lt;/span&gt;&lt;/p&gt;&lt;/td&gt;&lt;td class=&quot;oa1&quot; width=&quot;138&quot; style=&quot;padding: 3.6pt 7.2pt; color: windowtext; font-size: 18pt; font-weight: 400; font-style: normal; text-decoration: none; font-family: Arial; vertical-align: top; border: 1pt solid black; text-align: center; width: 104pt;&quot;&gt;&lt;p style=&quot;margin-top: 0pt; margin-bottom: 0pt; margin-left: 0in; text-align: center; direction: ltr; unicode-bidi: embed; word-break: normal;&quot;&gt;&lt;span style=&quot;font-size: 18pt; font-family: 等线; color: black;&quot;&gt;92&lt;/span&gt;&lt;/p&gt;&lt;/td&gt;&lt;td class=&quot;oa1&quot; width=&quot;138&quot; style=&quot;padding: 3.6pt 7.2pt; color: windowtext; font-size: 18pt; font-weight: 400; font-style: normal; text-decoration: none; font-family: Arial; vertical-align: top; border: 1pt solid black; text-align: center; width: 104pt;&quot;&gt;&lt;p style=&quot;margin-top: 0pt; margin-bottom: 0pt; margin-left: 0in; text-align: center; direction: ltr; unicode-bidi: embed; word-break: normal;&quot;&gt;&lt;span style=&quot;font-size: 18pt; font-family: 等线; color: black;&quot;&gt;76&lt;/span&gt;&lt;/p&gt;&lt;/td&gt;&lt;/tr&gt;&lt;tr height=&quot;35&quot; style=&quot;height: 26.03pt;&quot;&gt;&lt;td height=&quot;35&quot; class=&quot;oa1&quot; width=&quot;138&quot; style=&quot;padding: 3.6pt 7.2pt; color: windowtext; font-size: 18pt; font-weight: 400; font-style: normal; text-decoration: none; font-family: Arial; vertical-align: top; border: 1pt solid black; text-align: center; height: 26.03pt; width: 104pt;&quot;&gt;&lt;p style=&quot;margin-top: 0pt; margin-bottom: 0pt; margin-left: 0in; text-align: center; direction: ltr; unicode-bidi: embed; word-break: normal;&quot;&gt;&lt;span style=&quot;font-size: 18pt; font-family: 等线; color: black;&quot;&gt;2&lt;/span&gt;&lt;/p&gt;&lt;/td&gt;&lt;td class=&quot;oa1&quot; width=&quot;138&quot; style=&quot;padding: 3.6pt 7.2pt; color: windowtext; font-size: 18pt; font-weight: 400; font-style: normal; text-decoration: none; font-family: Arial; vertical-align: top; border: 1pt solid black; text-align: center; width: 104pt;&quot;&gt;&lt;p style=&quot;margin-top: 0pt; margin-bottom: 0pt; margin-left: 0in; text-align: center; direction: ltr; unicode-bidi: embed; word-break: normal;&quot;&gt;&lt;span style=&quot;font-size: 18pt; font-family: 等线; color: black;&quot;&gt;3&lt;/span&gt;&lt;/p&gt;&lt;/td&gt;&lt;td class=&quot;oa1&quot; width=&quot;138&quot; style=&quot;padding: 3.6pt 7.2pt; color: windowtext; font-size: 18pt; font-weight: 400; font-style: normal; text-decoration: none; font-family: Arial; vertical-align: top; border: 1pt solid black; text-align: center; width: 104pt;&quot;&gt;&lt;p style=&quot;margin-top: 0pt; margin-bottom: 0pt; margin-left: 0in; text-align: center; direction: ltr; unicode-bidi: embed; word-break: normal;&quot;&gt;&lt;span style=&quot;font-size: 18pt; font-family: 等线; color: black;&quot;&gt;John&lt;/span&gt;&lt;/p&gt;&lt;/td&gt;&lt;td class=&quot;oa1&quot; width=&quot;138&quot; style=&quot;padding: 3.6pt 7.2pt; color: windowtext; font-size: 18pt; font-weight: 400; font-style: normal; text-decoration: none; font-family: Arial; vertical-align: top; border: 1pt solid black; text-align: center; width: 104pt;&quot;&gt;&lt;p style=&quot;margin-top: 0pt; margin-bottom: 0pt; margin-left: 0in; text-align: center; direction: ltr; unicode-bidi: embed; word-break: normal;&quot;&gt;&lt;span style=&quot;font-size: 18pt; font-family: 等线; color: black;&quot;&gt;88&lt;/span&gt;&lt;/p&gt;&lt;/td&gt;&lt;td class=&quot;oa1&quot; width=&quot;138&quot; style=&quot;padding: 3.6pt 7.2pt; color: windowtext; font-size: 18pt; font-weight: 400; font-style: normal; text-decoration: none; font-family: Arial; vertical-align: top; border: 1pt solid black; text-align: center; width: 104pt;&quot;&gt;&lt;p style=&quot;margin-top: 0pt; margin-bottom: 0pt; margin-left: 0in; text-align: center; direction: ltr; unicode-bidi: embed; word-break: normal;&quot;&gt;&lt;span style=&quot;font-size: 18pt; font-family: 等线; color: black;&quot;&gt;79&lt;/span&gt;&lt;/p&gt;&lt;/td&gt;&lt;td class=&quot;oa1&quot; width=&quot;138&quot; style=&quot;padding: 3.6pt 7.2pt; color: windowtext; font-size: 18pt; font-weight: 400; font-style: normal; text-decoration: none; font-family: Arial; vertical-align: top; border: 1pt solid black; text-align: center; width: 104pt;&quot;&gt;&lt;p style=&quot;margin-top: 0pt; margin-bottom: 0pt; margin-left: 0in; text-align: center; direction: ltr; unicode-bidi: embed; word-break: normal;&quot;&gt;&lt;span style=&quot;font-size: 18pt; font-family: 等线; color: black;&quot;&gt;90&lt;/span&gt;&lt;/p&gt;&lt;/td&gt;&lt;/tr&gt;&lt;/tbody&gt;&lt;/table&gt;" style="text;whiteSpace=wrap;html=1;" vertex="1" parent="1">
          <mxGeometry x="40" y="100" width="850" height="180" as="geometry" />
        </mxCell>
        <mxCell id="cUyVVVKYGetLILxytOfe-31" value="&lt;table border=&quot;0&quot; cellpadding=&quot;0&quot; cellspacing=&quot;0&quot; width=&quot;711&quot; style=&quot;caret-color: rgb(0, 0, 0); color: rgb(0, 0, 0); font-style: normal; font-variant-caps: normal; font-weight: 400; letter-spacing: normal; text-align: start; text-transform: none; word-spacing: 0px; -webkit-text-stroke-width: 0px; text-decoration: none; border-collapse: collapse; width: 533pt;&quot;&gt;&lt;colgroup&gt;&lt;col width=&quot;142&quot; span=&quot;5&quot; style=&quot;width: 107pt;&quot;&gt;&lt;/colgroup&gt;&lt;tbody&gt;&lt;tr height=&quot;37&quot; style=&quot;height: 27.63pt;&quot;&gt;&lt;td height=&quot;37&quot; class=&quot;oa1&quot; width=&quot;142&quot; style=&quot;padding: 3.6pt 7.2pt; color: windowtext; font-size: 18pt; font-weight: 400; font-style: normal; text-decoration: none; font-family: Arial; vertical-align: top; border: 1pt solid black; text-align: center; height: 27.63pt; width: 107pt;&quot;&gt;&lt;p style=&quot;margin-top: 0pt; margin-bottom: 0pt; margin-left: 0in; text-align: center; direction: ltr; unicode-bidi: embed; word-break: normal;&quot;&gt;&lt;span style=&quot;font-size: 18pt; font-family: 等线; color: black;&quot;&gt;id&lt;/span&gt;&lt;/p&gt;&lt;/td&gt;&lt;td class=&quot;oa1&quot; width=&quot;142&quot; style=&quot;padding: 3.6pt 7.2pt; color: windowtext; font-size: 18pt; font-weight: 400; font-style: normal; text-decoration: none; font-family: Arial; vertical-align: top; border: 1pt solid black; text-align: center; width: 107pt;&quot;&gt;&lt;p style=&quot;margin-top: 0pt; margin-bottom: 0pt; margin-left: 0in; text-align: center; direction: ltr; unicode-bidi: embed; word-break: normal;&quot;&gt;&lt;span style=&quot;font-size: 18pt; font-family: 等线; color: black;&quot;&gt;Student_id&lt;/span&gt;&lt;/p&gt;&lt;/td&gt;&lt;td class=&quot;oa1&quot; width=&quot;142&quot; style=&quot;padding: 3.6pt 7.2pt; color: windowtext; font-size: 18pt; font-weight: 400; font-style: normal; text-decoration: none; font-family: Arial; vertical-align: top; border: 1pt solid black; text-align: center; width: 107pt;&quot;&gt;&lt;p style=&quot;margin-top: 0pt; margin-bottom: 0pt; margin-left: 0in; text-align: center; direction: ltr; unicode-bidi: embed; word-break: normal;&quot;&gt;&lt;span style=&quot;font-size: 18pt; font-family: 等线; color: black;&quot;&gt;Name&lt;/span&gt;&lt;/p&gt;&lt;/td&gt;&lt;td class=&quot;oa1&quot; width=&quot;142&quot; style=&quot;padding: 3.6pt 7.2pt; color: windowtext; font-size: 18pt; font-weight: 400; font-style: normal; text-decoration: none; font-family: Arial; vertical-align: top; border: 1pt solid black; text-align: center; width: 107pt;&quot;&gt;&lt;p style=&quot;margin-top: 0pt; margin-bottom: 0pt; margin-left: 0in; text-align: center; direction: ltr; unicode-bidi: embed; word-break: normal;&quot;&gt;&lt;span style=&quot;font-size: 18pt; font-family: 等线; color: black;&quot;&gt;Subject&lt;/span&gt;&lt;/p&gt;&lt;/td&gt;&lt;td class=&quot;oa1&quot; width=&quot;142&quot; style=&quot;padding: 3.6pt 7.2pt; color: windowtext; font-size: 18pt; font-weight: 400; font-style: normal; text-decoration: none; font-family: Arial; vertical-align: top; border: 1pt solid black; text-align: center; width: 107pt;&quot;&gt;&lt;p style=&quot;margin-top: 0pt; margin-bottom: 0pt; margin-left: 0in; text-align: center; direction: ltr; unicode-bidi: embed; word-break: normal;&quot;&gt;&lt;span style=&quot;font-size: 18pt; font-family: 等线; color: black;&quot;&gt;Score&lt;/span&gt;&lt;/p&gt;&lt;/td&gt;&lt;/tr&gt;&lt;tr height=&quot;39&quot; style=&quot;height: 29.2pt;&quot;&gt;&lt;td height=&quot;39&quot; class=&quot;oa1&quot; width=&quot;142&quot; style=&quot;padding: 3.6pt 7.2pt; color: windowtext; font-size: 18pt; font-weight: 400; font-style: normal; text-decoration: none; font-family: Arial; vertical-align: top; border: 1pt solid black; text-align: center; height: 29.2pt; width: 107pt;&quot;&gt;&lt;p style=&quot;margin-top: 0pt; margin-bottom: 0pt; margin-left: 0in; text-align: center; direction: ltr; unicode-bidi: embed; word-break: normal;&quot;&gt;&lt;span style=&quot;font-size: 18pt; font-family: 等线; color: black;&quot;&gt;0&lt;/span&gt;&lt;/p&gt;&lt;/td&gt;&lt;td class=&quot;oa1&quot; width=&quot;142&quot; style=&quot;padding: 3.6pt 7.2pt; color: windowtext; font-size: 18pt; font-weight: 400; font-style: normal; text-decoration: none; font-family: Arial; vertical-align: top; border: 1pt solid black; text-align: center; width: 107pt;&quot;&gt;&lt;p style=&quot;margin-top: 0pt; margin-bottom: 0pt; margin-left: 0in; text-align: center; direction: ltr; unicode-bidi: embed; word-break: normal;&quot;&gt;&lt;span style=&quot;font-size: 18pt; font-family: 等线; color: black;&quot;&gt;1&lt;/span&gt;&lt;/p&gt;&lt;/td&gt;&lt;td class=&quot;oa1&quot; width=&quot;142&quot; style=&quot;padding: 3.6pt 7.2pt; color: windowtext; font-size: 18pt; font-weight: 400; font-style: normal; text-decoration: none; font-family: Arial; vertical-align: top; border: 1pt solid black; text-align: center; width: 107pt;&quot;&gt;&lt;p style=&quot;margin-top: 0pt; margin-bottom: 0pt; margin-left: 0in; text-align: center; direction: ltr; unicode-bidi: embed; word-break: normal;&quot;&gt;&lt;span style=&quot;font-size: 18pt; font-family: 等线; color: black;&quot;&gt;Amy&lt;/span&gt;&lt;/p&gt;&lt;/td&gt;&lt;td class=&quot;oa1&quot; width=&quot;142&quot; style=&quot;padding: 3.6pt 7.2pt; color: windowtext; font-size: 18pt; font-weight: 400; font-style: normal; text-decoration: none; font-family: Arial; vertical-align: top; border: 1pt solid black; text-align: center; width: 107pt;&quot;&gt;&lt;p style=&quot;margin-top: 0pt; margin-bottom: 0pt; margin-left: 0in; text-align: center; direction: ltr; unicode-bidi: embed; word-break: normal;&quot;&gt;&lt;span style=&quot;font-size: 18pt; font-family: 等线; color: black;&quot;&gt;Math&lt;/span&gt;&lt;/p&gt;&lt;/td&gt;&lt;td class=&quot;oa1&quot; width=&quot;142&quot; style=&quot;padding: 3.6pt 7.2pt; color: windowtext; font-size: 18pt; font-weight: 400; font-style: normal; text-decoration: none; font-family: Arial; vertical-align: top; border: 1pt solid black; text-align: center; width: 107pt;&quot;&gt;&lt;p style=&quot;margin-top: 0pt; margin-bottom: 0pt; margin-left: 0in; text-align: center; direction: ltr; unicode-bidi: embed; word-break: normal;&quot;&gt;&lt;span style=&quot;font-size: 18pt; font-family: 等线; color: black;&quot;&gt;90&lt;/span&gt;&lt;/p&gt;&lt;/td&gt;&lt;/tr&gt;&lt;tr height=&quot;39&quot; style=&quot;height: 29.2pt;&quot;&gt;&lt;td height=&quot;39&quot; class=&quot;oa1&quot; width=&quot;142&quot; style=&quot;padding: 3.6pt 7.2pt; color: windowtext; font-size: 18pt; font-weight: 400; font-style: normal; text-decoration: none; font-family: Arial; vertical-align: top; border: 1pt solid black; text-align: center; height: 29.2pt; width: 107pt;&quot;&gt;&lt;p style=&quot;margin-top: 0pt; margin-bottom: 0pt; margin-left: 0in; text-align: center; direction: ltr; unicode-bidi: embed; word-break: normal;&quot;&gt;&lt;span style=&quot;font-size: 18pt; font-family: 等线; color: black;&quot;&gt;1&lt;/span&gt;&lt;/p&gt;&lt;/td&gt;&lt;td class=&quot;oa1&quot; width=&quot;142&quot; style=&quot;padding: 3.6pt 7.2pt; color: windowtext; font-size: 18pt; font-weight: 400; font-style: normal; text-decoration: none; font-family: Arial; vertical-align: top; border: 1pt solid black; text-align: center; width: 107pt;&quot;&gt;&lt;p style=&quot;margin-top: 0pt; margin-bottom: 0pt; margin-left: 0in; text-align: center; direction: ltr; unicode-bidi: embed; word-break: normal;&quot;&gt;&lt;span style=&quot;font-size: 18pt; font-family: 等线; color: black;&quot;&gt;2&lt;/span&gt;&lt;/p&gt;&lt;/td&gt;&lt;td class=&quot;oa1&quot; width=&quot;142&quot; style=&quot;padding: 3.6pt 7.2pt; color: windowtext; font-size: 18pt; font-weight: 400; font-style: normal; text-decoration: none; font-family: Arial; vertical-align: top; border: 1pt solid black; text-align: center; width: 107pt;&quot;&gt;&lt;p style=&quot;margin-top: 0pt; margin-bottom: 0pt; margin-left: 0in; text-align: center; direction: ltr; unicode-bidi: embed; word-break: normal;&quot;&gt;&lt;span style=&quot;font-size: 18pt; font-family: 等线; color: black;&quot;&gt;Bob&lt;/span&gt;&lt;/p&gt;&lt;/td&gt;&lt;td class=&quot;oa1&quot; width=&quot;142&quot; style=&quot;padding: 3.6pt 7.2pt; color: windowtext; font-size: 18pt; font-weight: 400; font-style: normal; text-decoration: none; font-family: Arial; vertical-align: top; border: 1pt solid black; text-align: center; width: 107pt;&quot;&gt;&lt;p style=&quot;margin-top: 0pt; margin-bottom: 0pt; margin-left: 0in; text-align: center; direction: ltr; unicode-bidi: embed; word-break: normal;&quot;&gt;&lt;span style=&quot;font-size: 18pt; font-family: 等线; color: black;&quot;&gt;Math&lt;/span&gt;&lt;/p&gt;&lt;/td&gt;&lt;td class=&quot;oa1&quot; width=&quot;142&quot; style=&quot;padding: 3.6pt 7.2pt; color: windowtext; font-size: 18pt; font-weight: 400; font-style: normal; text-decoration: none; font-family: Arial; vertical-align: top; border: 1pt solid black; text-align: center; width: 107pt;&quot;&gt;&lt;p style=&quot;margin-top: 0pt; margin-bottom: 0pt; margin-left: 0in; text-align: center; direction: ltr; unicode-bidi: embed; word-break: normal;&quot;&gt;&lt;span style=&quot;font-size: 18pt; font-family: 等线; color: black;&quot;&gt;78&lt;/span&gt;&lt;/p&gt;&lt;/td&gt;&lt;/tr&gt;&lt;tr height=&quot;39&quot; style=&quot;height: 29.2pt;&quot;&gt;&lt;td height=&quot;39&quot; class=&quot;oa1&quot; width=&quot;142&quot; style=&quot;padding: 3.6pt 7.2pt; color: windowtext; font-size: 18pt; font-weight: 400; font-style: normal; text-decoration: none; font-family: Arial; vertical-align: top; border: 1pt solid black; text-align: center; height: 29.2pt; width: 107pt;&quot;&gt;&lt;p style=&quot;margin-top: 0pt; margin-bottom: 0pt; margin-left: 0in; text-align: center; direction: ltr; unicode-bidi: embed; word-break: normal;&quot;&gt;&lt;span style=&quot;font-size: 18pt; font-family: 等线; color: black;&quot;&gt;2&lt;/span&gt;&lt;/p&gt;&lt;/td&gt;&lt;td class=&quot;oa1&quot; width=&quot;142&quot; style=&quot;padding: 3.6pt 7.2pt; color: windowtext; font-size: 18pt; font-weight: 400; font-style: normal; text-decoration: none; font-family: Arial; vertical-align: top; border: 1pt solid black; text-align: center; width: 107pt;&quot;&gt;&lt;p style=&quot;margin-top: 0pt; margin-bottom: 0pt; margin-left: 0in; text-align: center; direction: ltr; unicode-bidi: embed; word-break: normal;&quot;&gt;&lt;span style=&quot;font-size: 18pt; font-family: 等线; color: black;&quot;&gt;3&lt;/span&gt;&lt;/p&gt;&lt;/td&gt;&lt;td class=&quot;oa1&quot; width=&quot;142&quot; style=&quot;padding: 3.6pt 7.2pt; color: windowtext; font-size: 18pt; font-weight: 400; font-style: normal; text-decoration: none; font-family: Arial; vertical-align: top; border: 1pt solid black; text-align: center; width: 107pt;&quot;&gt;&lt;p style=&quot;margin-top: 0pt; margin-bottom: 0pt; margin-left: 0in; text-align: center; direction: ltr; unicode-bidi: embed; word-break: normal;&quot;&gt;&lt;span style=&quot;font-size: 18pt; font-family: 等线; color: black;&quot;&gt;John&lt;/span&gt;&lt;/p&gt;&lt;/td&gt;&lt;td class=&quot;oa1&quot; width=&quot;142&quot; style=&quot;padding: 3.6pt 7.2pt; color: windowtext; font-size: 18pt; font-weight: 400; font-style: normal; text-decoration: none; font-family: Arial; vertical-align: top; border: 1pt solid black; text-align: center; width: 107pt;&quot;&gt;&lt;p style=&quot;margin-top: 0pt; margin-bottom: 0pt; margin-left: 0in; text-align: center; direction: ltr; unicode-bidi: embed; word-break: normal;&quot;&gt;&lt;span style=&quot;font-size: 18pt; font-family: 等线; color: black;&quot;&gt;Math&lt;/span&gt;&lt;/p&gt;&lt;/td&gt;&lt;td class=&quot;oa1&quot; width=&quot;142&quot; style=&quot;padding: 3.6pt 7.2pt; color: windowtext; font-size: 18pt; font-weight: 400; font-style: normal; text-decoration: none; font-family: Arial; vertical-align: top; border: 1pt solid black; text-align: center; width: 107pt;&quot;&gt;&lt;p style=&quot;margin-top: 0pt; margin-bottom: 0pt; margin-left: 0in; text-align: center; direction: ltr; unicode-bidi: embed; word-break: normal;&quot;&gt;&lt;span style=&quot;font-size: 18pt; font-family: 等线; color: black;&quot;&gt;88&lt;/span&gt;&lt;/p&gt;&lt;/td&gt;&lt;/tr&gt;&lt;tr height=&quot;39&quot; style=&quot;height: 29.2pt;&quot;&gt;&lt;td height=&quot;39&quot; class=&quot;oa1&quot; width=&quot;142&quot; style=&quot;padding: 3.6pt 7.2pt; color: windowtext; font-size: 18pt; font-weight: 400; font-style: normal; text-decoration: none; font-family: Arial; vertical-align: top; border: 1pt solid black; text-align: center; height: 29.2pt; width: 107pt;&quot;&gt;&lt;p style=&quot;margin-top: 0pt; margin-bottom: 0pt; margin-left: 0in; text-align: center; direction: ltr; unicode-bidi: embed; word-break: normal;&quot;&gt;&lt;span style=&quot;font-size: 18pt; font-family: 等线; color: black;&quot;&gt;3&lt;/span&gt;&lt;/p&gt;&lt;/td&gt;&lt;td class=&quot;oa1&quot; width=&quot;142&quot; style=&quot;padding: 3.6pt 7.2pt; color: windowtext; font-size: 18pt; font-weight: 400; font-style: normal; text-decoration: none; font-family: Arial; vertical-align: top; border: 1pt solid black; text-align: center; width: 107pt;&quot;&gt;&lt;p style=&quot;margin-top: 0pt; margin-bottom: 0pt; margin-left: 0in; text-align: center; direction: ltr; unicode-bidi: embed; word-break: normal;&quot;&gt;&lt;span style=&quot;font-size: 18pt; font-family: 等线; color: black;&quot;&gt;1&lt;/span&gt;&lt;/p&gt;&lt;/td&gt;&lt;td class=&quot;oa1&quot; width=&quot;142&quot; style=&quot;padding: 3.6pt 7.2pt; color: windowtext; font-size: 18pt; font-weight: 400; font-style: normal; text-decoration: none; font-family: Arial; vertical-align: top; border: 1pt solid black; text-align: center; width: 107pt;&quot;&gt;&lt;p style=&quot;margin-top: 0pt; margin-bottom: 0pt; margin-left: 0in; text-align: center; direction: ltr; unicode-bidi: embed; word-break: normal;&quot;&gt;&lt;span style=&quot;font-size: 18pt; font-family: 等线; color: black;&quot;&gt;Amy&lt;/span&gt;&lt;/p&gt;&lt;/td&gt;&lt;td class=&quot;oa1&quot; width=&quot;142&quot; style=&quot;padding: 3.6pt 7.2pt; color: windowtext; font-size: 18pt; font-weight: 400; font-style: normal; text-decoration: none; font-family: Arial; vertical-align: top; border: 1pt solid black; text-align: center; width: 107pt;&quot;&gt;&lt;p style=&quot;margin-top: 0pt; margin-bottom: 0pt; margin-left: 0in; text-align: center; direction: ltr; unicode-bidi: embed; word-break: normal;&quot;&gt;&lt;span style=&quot;font-size: 18pt; font-family: 等线; color: black;&quot;&gt;English&lt;/span&gt;&lt;/p&gt;&lt;/td&gt;&lt;td class=&quot;oa1&quot; width=&quot;142&quot; style=&quot;padding: 3.6pt 7.2pt; color: windowtext; font-size: 18pt; font-weight: 400; font-style: normal; text-decoration: none; font-family: Arial; vertical-align: top; border: 1pt solid black; text-align: center; width: 107pt;&quot;&gt;&lt;p style=&quot;margin-top: 0pt; margin-bottom: 0pt; margin-left: 0in; text-align: center; direction: ltr; unicode-bidi: embed; word-break: normal;&quot;&gt;&lt;span style=&quot;font-size: 18pt; font-family: 等线; color: black;&quot;&gt;85&lt;/span&gt;&lt;/p&gt;&lt;/td&gt;&lt;/tr&gt;&lt;tr height=&quot;39&quot; style=&quot;height: 29.2pt;&quot;&gt;&lt;td height=&quot;39&quot; class=&quot;oa1&quot; width=&quot;142&quot; style=&quot;padding: 3.6pt 7.2pt; color: windowtext; font-size: 18pt; font-weight: 400; font-style: normal; text-decoration: none; font-family: Arial; vertical-align: top; border: 1pt solid black; text-align: center; height: 29.2pt; width: 107pt;&quot;&gt;&lt;p style=&quot;margin-top: 0pt; margin-bottom: 0pt; margin-left: 0in; text-align: center; direction: ltr; unicode-bidi: embed; word-break: normal;&quot;&gt;&lt;span style=&quot;font-size: 18pt; font-family: 等线; color: black;&quot;&gt;4&lt;/span&gt;&lt;/p&gt;&lt;/td&gt;&lt;td class=&quot;oa1&quot; width=&quot;142&quot; style=&quot;padding: 3.6pt 7.2pt; color: windowtext; font-size: 18pt; font-weight: 400; font-style: normal; text-decoration: none; font-family: Arial; vertical-align: top; border: 1pt solid black; text-align: center; width: 107pt;&quot;&gt;&lt;p style=&quot;margin-top: 0pt; margin-bottom: 0pt; margin-left: 0in; text-align: center; direction: ltr; unicode-bidi: embed; word-break: normal;&quot;&gt;&lt;span style=&quot;font-size: 18pt; font-family: 等线; color: black;&quot;&gt;2&lt;/span&gt;&lt;/p&gt;&lt;/td&gt;&lt;td class=&quot;oa1&quot; width=&quot;142&quot; style=&quot;padding: 3.6pt 7.2pt; color: windowtext; font-size: 18pt; font-weight: 400; font-style: normal; text-decoration: none; font-family: Arial; vertical-align: top; border: 1pt solid black; text-align: center; width: 107pt;&quot;&gt;&lt;p style=&quot;margin-top: 0pt; margin-bottom: 0pt; margin-left: 0in; text-align: center; direction: ltr; unicode-bidi: embed; word-break: normal;&quot;&gt;&lt;span style=&quot;font-size: 18pt; font-family: 等线; color: black;&quot;&gt;Bob&lt;/span&gt;&lt;/p&gt;&lt;/td&gt;&lt;td class=&quot;oa1&quot; width=&quot;142&quot; style=&quot;padding: 3.6pt 7.2pt; color: windowtext; font-size: 18pt; font-weight: 400; font-style: normal; text-decoration: none; font-family: Arial; vertical-align: top; border: 1pt solid black; text-align: center; width: 107pt;&quot;&gt;&lt;p style=&quot;margin-top: 0pt; margin-bottom: 0pt; margin-left: 0in; text-align: center; direction: ltr; unicode-bidi: embed; word-break: normal;&quot;&gt;&lt;span style=&quot;font-size: 18pt; font-family: 等线; color: black;&quot;&gt;English&lt;/span&gt;&lt;/p&gt;&lt;/td&gt;&lt;td class=&quot;oa1&quot; width=&quot;142&quot; style=&quot;padding: 3.6pt 7.2pt; color: windowtext; font-size: 18pt; font-weight: 400; font-style: normal; text-decoration: none; font-family: Arial; vertical-align: top; border: 1pt solid black; text-align: center; width: 107pt;&quot;&gt;&lt;p style=&quot;margin-top: 0pt; margin-bottom: 0pt; margin-left: 0in; text-align: center; direction: ltr; unicode-bidi: embed; word-break: normal;&quot;&gt;&lt;span style=&quot;font-size: 18pt; font-family: 等线; color: black;&quot;&gt;92&lt;/span&gt;&lt;/p&gt;&lt;/td&gt;&lt;/tr&gt;&lt;tr height=&quot;39&quot; style=&quot;height: 29.2pt;&quot;&gt;&lt;td height=&quot;39&quot; class=&quot;oa1&quot; width=&quot;142&quot; style=&quot;padding: 3.6pt 7.2pt; color: windowtext; font-size: 18pt; font-weight: 400; font-style: normal; text-decoration: none; font-family: Arial; vertical-align: top; border: 1pt solid black; text-align: center; height: 29.2pt; width: 107pt;&quot;&gt;&lt;p style=&quot;margin-top: 0pt; margin-bottom: 0pt; margin-left: 0in; text-align: center; direction: ltr; unicode-bidi: embed; word-break: normal;&quot;&gt;&lt;span style=&quot;font-size: 18pt; font-family: 等线; color: black;&quot;&gt;5&lt;/span&gt;&lt;/p&gt;&lt;/td&gt;&lt;td class=&quot;oa1&quot; width=&quot;142&quot; style=&quot;padding: 3.6pt 7.2pt; color: windowtext; font-size: 18pt; font-weight: 400; font-style: normal; text-decoration: none; font-family: Arial; vertical-align: top; border: 1pt solid black; text-align: center; width: 107pt;&quot;&gt;&lt;p style=&quot;margin-top: 0pt; margin-bottom: 0pt; margin-left: 0in; text-align: center; direction: ltr; unicode-bidi: embed; word-break: normal;&quot;&gt;&lt;span style=&quot;font-size: 18pt; font-family: 等线; color: black;&quot;&gt;3&lt;/span&gt;&lt;/p&gt;&lt;/td&gt;&lt;td class=&quot;oa1&quot; width=&quot;142&quot; style=&quot;padding: 3.6pt 7.2pt; color: windowtext; font-size: 18pt; font-weight: 400; font-style: normal; text-decoration: none; font-family: Arial; vertical-align: top; border: 1pt solid black; text-align: center; width: 107pt;&quot;&gt;&lt;p style=&quot;margin-top: 0pt; margin-bottom: 0pt; margin-left: 0in; text-align: center; direction: ltr; unicode-bidi: embed; word-break: normal;&quot;&gt;&lt;span style=&quot;font-size: 18pt; font-family: 等线; color: black;&quot;&gt;John&lt;/span&gt;&lt;/p&gt;&lt;/td&gt;&lt;td class=&quot;oa1&quot; width=&quot;142&quot; style=&quot;padding: 3.6pt 7.2pt; color: windowtext; font-size: 18pt; font-weight: 400; font-style: normal; text-decoration: none; font-family: Arial; vertical-align: top; border: 1pt solid black; text-align: center; width: 107pt;&quot;&gt;&lt;p style=&quot;margin-top: 0pt; margin-bottom: 0pt; margin-left: 0in; text-align: center; direction: ltr; unicode-bidi: embed; word-break: normal;&quot;&gt;&lt;span style=&quot;font-size: 18pt; font-family: 等线; color: black;&quot;&gt;English&lt;/span&gt;&lt;/p&gt;&lt;/td&gt;&lt;td class=&quot;oa1&quot; width=&quot;142&quot; style=&quot;padding: 3.6pt 7.2pt; color: windowtext; font-size: 18pt; font-weight: 400; font-style: normal; text-decoration: none; font-family: Arial; vertical-align: top; border: 1pt solid black; text-align: center; width: 107pt;&quot;&gt;&lt;p style=&quot;margin-top: 0pt; margin-bottom: 0pt; margin-left: 0in; text-align: center; direction: ltr; unicode-bidi: embed; word-break: normal;&quot;&gt;&lt;span style=&quot;font-size: 18pt; font-family: 等线; color: black;&quot;&gt;79&lt;/span&gt;&lt;/p&gt;&lt;/td&gt;&lt;/tr&gt;&lt;tr height=&quot;39&quot; style=&quot;height: 29.2pt;&quot;&gt;&lt;td height=&quot;39&quot; class=&quot;oa1&quot; width=&quot;142&quot; style=&quot;padding: 3.6pt 7.2pt; color: windowtext; font-size: 18pt; font-weight: 400; font-style: normal; text-decoration: none; font-family: Arial; vertical-align: top; border: 1pt solid black; text-align: center; height: 29.2pt; width: 107pt;&quot;&gt;&lt;p style=&quot;margin-top: 0pt; margin-bottom: 0pt; margin-left: 0in; text-align: center; direction: ltr; unicode-bidi: embed; word-break: normal;&quot;&gt;&lt;span style=&quot;font-size: 18pt; font-family: 等线; color: black;&quot;&gt;6&lt;/span&gt;&lt;/p&gt;&lt;/td&gt;&lt;td class=&quot;oa1&quot; width=&quot;142&quot; style=&quot;padding: 3.6pt 7.2pt; color: windowtext; font-size: 18pt; font-weight: 400; font-style: normal; text-decoration: none; font-family: Arial; vertical-align: top; border: 1pt solid black; text-align: center; width: 107pt;&quot;&gt;&lt;p style=&quot;margin-top: 0pt; margin-bottom: 0pt; margin-left: 0in; text-align: center; direction: ltr; unicode-bidi: embed; word-break: normal;&quot;&gt;&lt;span style=&quot;font-size: 18pt; font-family: 等线; color: black;&quot;&gt;1&lt;/span&gt;&lt;/p&gt;&lt;/td&gt;&lt;td class=&quot;oa1&quot; width=&quot;142&quot; style=&quot;padding: 3.6pt 7.2pt; color: windowtext; font-size: 18pt; font-weight: 400; font-style: normal; text-decoration: none; font-family: Arial; vertical-align: top; border: 1pt solid black; text-align: center; width: 107pt;&quot;&gt;&lt;p style=&quot;margin-top: 0pt; margin-bottom: 0pt; margin-left: 0in; text-align: center; direction: ltr; unicode-bidi: embed; word-break: normal;&quot;&gt;&lt;span style=&quot;font-size: 18pt; font-family: 等线; color: black;&quot;&gt;Amy&lt;/span&gt;&lt;/p&gt;&lt;/td&gt;&lt;td class=&quot;oa1&quot; width=&quot;142&quot; style=&quot;padding: 3.6pt 7.2pt; color: windowtext; font-size: 18pt; font-weight: 400; font-style: normal; text-decoration: none; font-family: Arial; vertical-align: top; border: 1pt solid black; text-align: center; width: 107pt;&quot;&gt;&lt;p style=&quot;margin-top: 0pt; margin-bottom: 0pt; margin-left: 0in; text-align: center; direction: ltr; unicode-bidi: embed; word-break: normal;&quot;&gt;&lt;span style=&quot;font-size: 18pt; font-family: 等线; color: black;&quot;&gt;History&lt;/span&gt;&lt;/p&gt;&lt;/td&gt;&lt;td class=&quot;oa1&quot; width=&quot;142&quot; style=&quot;padding: 3.6pt 7.2pt; color: windowtext; font-size: 18pt; font-weight: 400; font-style: normal; text-decoration: none; font-family: Arial; vertical-align: top; border: 1pt solid black; text-align: center; width: 107pt;&quot;&gt;&lt;p style=&quot;margin-top: 0pt; margin-bottom: 0pt; margin-left: 0in; text-align: center; direction: ltr; unicode-bidi: embed; word-break: normal;&quot;&gt;&lt;span style=&quot;font-size: 18pt; font-family: 等线; color: black;&quot;&gt;88&lt;/span&gt;&lt;/p&gt;&lt;/td&gt;&lt;/tr&gt;&lt;tr height=&quot;39&quot; style=&quot;height: 29.2pt;&quot;&gt;&lt;td height=&quot;39&quot; class=&quot;oa1&quot; width=&quot;142&quot; style=&quot;padding: 3.6pt 7.2pt; color: windowtext; font-size: 18pt; font-weight: 400; font-style: normal; text-decoration: none; font-family: Arial; vertical-align: top; border: 1pt solid black; text-align: center; height: 29.2pt; width: 107pt;&quot;&gt;&lt;p style=&quot;margin-top: 0pt; margin-bottom: 0pt; margin-left: 0in; text-align: center; direction: ltr; unicode-bidi: embed; word-break: normal;&quot;&gt;&lt;span style=&quot;font-size: 18pt; font-family: 等线; color: black;&quot;&gt;7&lt;/span&gt;&lt;/p&gt;&lt;/td&gt;&lt;td class=&quot;oa1&quot; width=&quot;142&quot; style=&quot;padding: 3.6pt 7.2pt; color: windowtext; font-size: 18pt; font-weight: 400; font-style: normal; text-decoration: none; font-family: Arial; vertical-align: top; border: 1pt solid black; text-align: center; width: 107pt;&quot;&gt;&lt;p style=&quot;margin-top: 0pt; margin-bottom: 0pt; margin-left: 0in; text-align: center; direction: ltr; unicode-bidi: embed; word-break: normal;&quot;&gt;&lt;span style=&quot;font-size: 18pt; font-family: 等线; color: black;&quot;&gt;2&lt;/span&gt;&lt;/p&gt;&lt;/td&gt;&lt;td class=&quot;oa1&quot; width=&quot;142&quot; style=&quot;padding: 3.6pt 7.2pt; color: windowtext; font-size: 18pt; font-weight: 400; font-style: normal; text-decoration: none; font-family: Arial; vertical-align: top; border: 1pt solid black; text-align: center; width: 107pt;&quot;&gt;&lt;p style=&quot;margin-top: 0pt; margin-bottom: 0pt; margin-left: 0in; text-align: center; direction: ltr; unicode-bidi: embed; word-break: normal;&quot;&gt;&lt;span style=&quot;font-size: 18pt; font-family: 等线; color: black;&quot;&gt;Bob&lt;/span&gt;&lt;/p&gt;&lt;/td&gt;&lt;td class=&quot;oa1&quot; width=&quot;142&quot; style=&quot;padding: 3.6pt 7.2pt; color: windowtext; font-size: 18pt; font-weight: 400; font-style: normal; text-decoration: none; font-family: Arial; vertical-align: top; border: 1pt solid black; text-align: center; width: 107pt;&quot;&gt;&lt;p style=&quot;margin-top: 0pt; margin-bottom: 0pt; margin-left: 0in; text-align: center; direction: ltr; unicode-bidi: embed; word-break: normal;&quot;&gt;&lt;span style=&quot;font-size: 18pt; font-family: 等线; color: black;&quot;&gt;History&lt;/span&gt;&lt;/p&gt;&lt;/td&gt;&lt;td class=&quot;oa1&quot; width=&quot;142&quot; style=&quot;padding: 3.6pt 7.2pt; color: windowtext; font-size: 18pt; font-weight: 400; font-style: normal; text-decoration: none; font-family: Arial; vertical-align: top; border: 1pt solid black; text-align: center; width: 107pt;&quot;&gt;&lt;p style=&quot;margin-top: 0pt; margin-bottom: 0pt; margin-left: 0in; text-align: center; direction: ltr; unicode-bidi: embed; word-break: normal;&quot;&gt;&lt;span style=&quot;font-size: 18pt; font-family: 等线; color: black;&quot;&gt;76&lt;/span&gt;&lt;/p&gt;&lt;/td&gt;&lt;/tr&gt;&lt;tr height=&quot;39&quot; style=&quot;height: 29.2pt;&quot;&gt;&lt;td height=&quot;39&quot; class=&quot;oa1&quot; width=&quot;142&quot; style=&quot;padding: 3.6pt 7.2pt; color: windowtext; font-size: 18pt; font-weight: 400; font-style: normal; text-decoration: none; font-family: Arial; vertical-align: top; border: 1pt solid black; text-align: center; height: 29.2pt; width: 107pt;&quot;&gt;&lt;p style=&quot;margin-top: 0pt; margin-bottom: 0pt; margin-left: 0in; text-align: center; direction: ltr; unicode-bidi: embed; word-break: normal;&quot;&gt;&lt;span style=&quot;font-size: 18pt; font-family: 等线; color: black;&quot;&gt;8&lt;/span&gt;&lt;/p&gt;&lt;/td&gt;&lt;td class=&quot;oa1&quot; width=&quot;142&quot; style=&quot;padding: 3.6pt 7.2pt; color: windowtext; font-size: 18pt; font-weight: 400; font-style: normal; text-decoration: none; font-family: Arial; vertical-align: top; border: 1pt solid black; text-align: center; width: 107pt;&quot;&gt;&lt;p style=&quot;margin-top: 0pt; margin-bottom: 0pt; margin-left: 0in; text-align: center; direction: ltr; unicode-bidi: embed; word-break: normal;&quot;&gt;&lt;span style=&quot;font-size: 18pt; font-family: 等线; color: black;&quot;&gt;3&lt;/span&gt;&lt;/p&gt;&lt;/td&gt;&lt;td class=&quot;oa1&quot; width=&quot;142&quot; style=&quot;padding: 3.6pt 7.2pt; color: windowtext; font-size: 18pt; font-weight: 400; font-style: normal; text-decoration: none; font-family: Arial; vertical-align: top; border: 1pt solid black; text-align: center; width: 107pt;&quot;&gt;&lt;p style=&quot;margin-top: 0pt; margin-bottom: 0pt; margin-left: 0in; text-align: center; direction: ltr; unicode-bidi: embed; word-break: normal;&quot;&gt;&lt;span style=&quot;font-size: 18pt; font-family: 等线; color: black;&quot;&gt;John&lt;/span&gt;&lt;/p&gt;&lt;/td&gt;&lt;td class=&quot;oa1&quot; width=&quot;142&quot; style=&quot;padding: 3.6pt 7.2pt; color: windowtext; font-size: 18pt; font-weight: 400; font-style: normal; text-decoration: none; font-family: Arial; vertical-align: top; border: 1pt solid black; text-align: center; width: 107pt;&quot;&gt;&lt;p style=&quot;margin-top: 0pt; margin-bottom: 0pt; margin-left: 0in; text-align: center; direction: ltr; unicode-bidi: embed; word-break: normal;&quot;&gt;&lt;span style=&quot;font-size: 18pt; font-family: 等线; color: black;&quot;&gt;History&lt;/span&gt;&lt;/p&gt;&lt;/td&gt;&lt;td class=&quot;oa1&quot; width=&quot;142&quot; style=&quot;padding: 3.6pt 7.2pt; color: windowtext; font-size: 18pt; font-weight: 400; font-style: normal; text-decoration: none; font-family: Arial; vertical-align: top; border: 1pt solid black; text-align: center; width: 107pt;&quot;&gt;&lt;p style=&quot;margin-top: 0pt; margin-bottom: 0pt; margin-left: 0in; text-align: center; direction: ltr; unicode-bidi: embed; word-break: normal;&quot;&gt;&lt;span style=&quot;font-size: 18pt; font-family: 等线; color: black;&quot;&gt;90&lt;/span&gt;&lt;/p&gt;&lt;/td&gt;&lt;/tr&gt;&lt;/tbody&gt;&lt;/table&gt;" style="text;whiteSpace=wrap;html=1;" vertex="1" parent="1">
          <mxGeometry x="110" y="370" width="700" height="240" as="geometry" />
        </mxCell>
        <mxCell id="cUyVVVKYGetLILxytOfe-32" value="" style="endArrow=classic;html=1;rounded=0;strokeWidth=2;" edge="1" parent="1">
          <mxGeometry width="50" height="50" relative="1" as="geometry">
            <mxPoint x="540" y="140" as="sourcePoint" />
            <mxPoint x="600" y="380" as="targetPoint" />
          </mxGeometry>
        </mxCell>
        <mxCell id="cUyVVVKYGetLILxytOfe-34" value="" style="endArrow=classic;html=1;rounded=0;strokeWidth=2;exitX=0.706;exitY=0.278;exitDx=0;exitDy=0;exitPerimeter=0;" edge="1" parent="1" source="cUyVVVKYGetLILxytOfe-30">
          <mxGeometry width="50" height="50" relative="1" as="geometry">
            <mxPoint x="550" y="150" as="sourcePoint" />
            <mxPoint x="610" y="390" as="targetPoint" />
          </mxGeometry>
        </mxCell>
        <mxCell id="cUyVVVKYGetLILxytOfe-36" value="" style="endArrow=classic;html=1;rounded=0;entryX=0.75;entryY=0;entryDx=0;entryDy=0;strokeWidth=2;" edge="1" parent="1">
          <mxGeometry width="50" height="50" relative="1" as="geometry">
            <mxPoint x="761.3461538461538" y="150" as="sourcePoint" />
            <mxPoint x="620" y="380" as="targetPoint" />
          </mxGeometry>
        </mxCell>
      </root>
    </mxGraphModel>
  </diagram>
</mxfile>
